<?xml version="1.0" encoding="UTF-8"?>
<svg width="358px" height="63px" viewBox="0 0 358 63" version="1.1" xmlns="http://www.w3.org/2000/svg" xmlns:xlink="http://www.w3.org/1999/xlink">
    <!-- Generator: Sketch 52.5 (67469) - http://www.bohemiancoding.com/sketch -->
    <title>Logo</title>
    <desc>Created with Sketch.</desc>
    <g id="Main" stroke="none" stroke-width="1" fill="none" fill-rule="evenodd">
        <g id="Dark/login-1" transform="translate(-534.000000, -237.000000)" fill="#FFFFFF">
            <g id="Logo" transform="translate(534.000000, 237.000000)">
                <g id="SvgjsG1029">
                    <g>
                        <path d="M8.49452624,12.3336388 C9.25711866,12.4150475 9.7655136,12.8220911 9.93497858,13.5547695 L10.9517685,17.462388 C14.0021381,10.6240557 20.018145,5.0882629 29.0845215,0.773600877 C29.7623814,0.447966007 30.3555089,0.529374725 30.9486363,0.936418312 C31.5417637,1.3434619 31.7112287,1.91332292 31.4570312,2.64600138 L30.9486363,4.5998106 C45.5226247,-2.64556526 60.0966131,-1.34302578 74.6706015,8.58883775 C75.263729,8.99588134 75.5179264,9.56574236 75.3484615,10.2170121 C75.1789965,10.8682818 74.755334,11.3567341 73.9927416,11.4381429 C66.2820849,13.0663172 60.2660781,15.997031 56.0294536,20.3116931 C51.792829,24.5449464 49.2508543,30.1621479 48.3187969,37.2447063 C48.2340644,37.7331586 48.0645994,38.0587935 47.640937,38.3844283 C47.2172745,38.6286545 46.7088796,38.7100632 46.2852171,38.5472458 C40.5234078,37.1632976 35.2699933,37.0004802 30.5249738,38.1402022 C36.0325857,38.6286545 40.8623377,39.361333 45.0142298,40.1754201 C45.6920897,40.3382376 46.1157521,40.7452812 46.2852171,41.3965509 C46.4546821,42.0478206 46.2852171,42.6176817 45.7768222,43.0247252 C36.2020507,50.8399621 24.678432,55.6430765 11.2059659,57.515477 L11.1212335,60.7718257 C11.1212335,61.260278 10.9517685,61.5859128 10.6128385,61.9115477 C10.2739085,62.2371826 9.93497858,62.4 9.42658364,62.4 C8.91818869,62.4 8.57925873,62.2371826 8.24032877,61.830139 C7.81666631,61.5859128 7.64720133,61.1788692 7.64720133,60.7718257 C7.73193382,58.4109728 7.81666631,56.8642072 7.9013988,55.9687113 C9.25711866,40.8266899 16.9677753,28.2897474 31.2028338,18.3578839 C31.6264962,18.1136577 32.0501587,17.9508403 32.4738211,18.1136577 C32.8974836,18.2764751 33.321146,18.4392926 33.5753435,18.7649274 C33.829541,19.171971 33.9142735,19.5790146 33.829541,19.9860582 C33.7448085,20.3931018 33.5753435,20.8001454 33.1516811,21.0443715 C20.4418074,29.9993304 13.2395457,41.070916 11.5448959,54.2591283 C22.8143172,52.5495452 32.5585536,48.7233355 40.7776052,42.7804991 C35.6089233,41.8850032 29.6776489,41.3151422 22.9837822,40.9895073 C22.6448522,40.9895073 22.3059222,40.8266899 22.0517248,40.5824637 C21.7975273,40.3382376 21.5433298,40.0126027 21.5433298,39.6869678 C21.4585973,39.361333 21.4585973,39.0356981 21.6280623,38.7100632 C21.7975273,38.3844283 22.0517248,38.1402022 22.3906547,37.895976 C29.0845215,34.2325838 36.7104457,33.2556791 45.4378922,35.0466709 C47.7256695,21.8584587 55.8599886,13.2291346 69.7561171,9.24010749 C62.9775178,5.25108034 56.1989185,3.2158624 49.5897843,3.2158624 C42.8959175,3.2158624 36.2020507,5.25108034 29.4234515,9.32151621 C28.7455915,9.7285598 28.0677316,9.64715108 27.5593367,9.24010749 C26.9662092,8.75165519 26.7120118,8.18179417 26.8814767,7.53052443 L27.4746042,5.41389777 C19.0013551,10.2170121 14.1716031,16.4040746 12.9006158,23.8936766 C12.8158833,24.3007202 12.6464183,24.6263551 12.3922208,24.8705812 C11.7990934,25.1148074 11.3754309,25.2776248 11.036501,25.2776248 C10.6128385,25.2776248 10.2739085,25.1962161 10.0197111,24.95199 C9.68078111,24.7077638 9.51131613,24.3821289 9.34185115,24.0564941 L7.81666631,18.5207013 C2.3937869,29.7551043 1.97012445,40.3382376 6.54567895,50.2701011 C6.71514393,50.6771447 6.71514393,51.0841883 6.63041144,51.4912319 C6.46094646,51.8982754 6.1220165,52.2239103 5.69835404,52.3867278 C5.27469159,52.5495452 4.76629665,52.5495452 4.34263419,52.4681365 C3.91897174,52.3867278 3.66477427,51.8982754 3.41057679,51.4912319 C-2.09703511,39.4427417 -0.910780236,26.661573 6.79987642,13.0663172 C7.22353888,12.4964562 7.73193382,12.25223 8.49452624,12.3336388 Z" id="Path"></path>
                    </g>
                </g>
                <g id="white_logo_transparent" transform="translate(80.600000, 10.400000)">
                    <g id="SvgjsG1030" transform="translate(0.674793, 1.692910)" fill-rule="nonzero">
                        <path d="M17.841927,31.3205429 L12.1441554,23.5112875 L6.44638386,31.3205429 L1.2476872,31.3205429 L9.56560186,20.2121903 L1.8715308,9.60496648 L6.98704832,9.60496648 L12.1441554,16.9130931 L17.3012625,9.60496648 L22.41678,9.60496648 L14.722709,20.2121903 L23.0406236,31.3205429 L17.841927,31.3205429 Z M36.1829288,2.08803619 C44.5840226,2.08803619 50.9056377,8.56094838 50.9056377,16.6207681 C50.9056377,24.8476307 44.5840226,31.3205429 36.1829288,31.3205429 L26.7836852,31.3205429 L26.7836852,2.08803619 L36.1829288,2.08803619 Z M36.1413392,26.9774276 C42.5045439,26.9774276 46.2476055,22.3419872 46.2476055,16.6207681 C46.2476055,11.0665918 42.5045439,6.43115147 36.1413392,6.43115147 L31.3585383,6.43115147 L31.3585383,26.9774276 L36.1413392,26.9774276 Z M65.212451,9.22911996 C70.1200206,9.22911996 76.7743523,12.9875851 75.734613,22.0914229 L58.5165296,22.0914229 C59.1819628,25.9751702 62.2595912,27.8961635 65.7531154,27.8961635 C68.622796,27.8961635 70.1616102,27.1444705 71.742014,25.8916488 L74.2789779,28.3137707 C72.3658576,30.4853284 69.6209457,31.7381501 65.6283467,31.7381501 C60.138523,31.7381501 54.0248557,27.979685 54.0248557,20.5045154 C54.0248557,12.9875851 60.3048813,9.22911996 65.212451,9.22911996 Z M65.212451,13.1128673 C62.4259495,13.1128673 59.3067315,14.9920999 58.5581192,18.7923257 L71.7836035,18.7923257 C71.2845287,14.9920999 67.9989524,13.1128673 65.212451,13.1128673 Z M84.0941172,1.79571112 L84.0941172,31.3205429 L79.6024433,31.3205429 L79.6024433,1.79571112 L84.0941172,1.79571112 Z M99.6902072,13.3634316 L95.1153542,13.3634316 L95.1153542,25.5158023 C95.1153542,26.6851025 95.5312499,27.6038384 96.8621162,27.6038384 C97.9850347,27.6038384 98.7752366,27.3950348 99.6902072,27.0191883 L99.6902072,30.8194142 C98.7752366,31.2787821 97.569139,31.5711072 95.6976082,31.5711072 C92.9942859,31.5711072 90.6236802,30.4853284 90.6236802,25.6828451 L90.6236802,13.3634316 L87.629231,13.3634316 L87.629231,9.60496648 L90.6236802,9.60496648 L90.6236802,4.51015817 L95.1153542,4.51015817 L95.1153542,9.60496648 L99.6902072,9.60496648 L99.6902072,13.3634316 Z M113.373177,9.22911996 C117.282597,9.22911996 119.86115,11.5677205 120.401815,12.9875851 L120.401815,9.60496648 L124.893489,9.60496648 L124.893489,31.3205429 L120.401815,31.3205429 L120.401815,27.7291206 C119.86115,29.483071 117.282597,31.7381501 113.373177,31.7381501 C108.465607,31.7381501 102.601477,28.0632064 102.601477,20.4627547 C102.601477,12.9875851 108.465607,9.22911996 113.373177,9.22911996 Z M113.955431,13.2381495 C110.586675,13.2381495 106.968383,15.6602714 106.968383,20.4627547 C106.968383,25.3069986 110.586675,27.7291206 113.955431,27.7291206 C117.324186,27.7291206 120.609763,25.3487594 120.609763,20.4627547 C120.609763,15.6185107 117.324186,13.2381495 113.955431,13.2381495 Z M166.358293,28.1884886 C163.73815,30.4853284 160.327805,31.7381501 156.543154,31.7381501 C148.724314,31.7381501 141.529318,25.557563 141.529318,16.7042895 C141.529318,7.85101608 148.724314,1.67042895 156.543154,1.67042895 C160.286216,1.67042895 163.654971,2.92325067 166.233525,5.13656903 L163.447023,8.31038404 C161.617082,6.89051943 159.246476,6.01354423 156.834281,6.01354423 C151.178099,6.01354423 146.270529,10.440181 146.270529,16.7042895 C146.270529,22.9683981 151.178099,27.3950348 156.834281,27.3950348 C159.288066,27.3950348 161.741851,26.4762989 163.571792,24.9729128 L166.358293,28.1884886 Z M180.041263,9.22911996 C183.950683,9.22911996 186.529236,11.5677205 187.069901,12.9875851 L187.069901,9.60496648 L191.561575,9.60496648 L191.561575,31.3205429 L187.069901,31.3205429 L187.069901,27.7291206 C186.529236,29.483071 183.950683,31.7381501 180.041263,31.7381501 C175.133693,31.7381501 169.269563,28.0632064 169.269563,20.4627547 C169.269563,12.9875851 175.133693,9.22911996 180.041263,9.22911996 Z M180.623517,13.2381495 C177.254761,13.2381495 173.636469,15.6602714 173.636469,20.4627547 C173.636469,25.3069986 177.254761,27.7291206 180.623517,27.7291206 C183.992272,27.7291206 187.277849,25.3487594 187.277849,20.4627547 C187.277849,15.6185107 183.992272,13.2381495 180.623517,13.2381495 Z M207.65674,9.22911996 C212.564309,9.22911996 218.428439,12.9875851 218.428439,20.4627547 C218.428439,28.0632064 212.564309,31.7381501 207.65674,31.7381501 C203.74732,31.7381501 201.168766,29.483071 200.628102,27.7291206 L200.628102,39.2550804 L196.136428,39.2550804 L196.136428,26.0169309 L196.136428,9.60496648 L200.628102,9.60496648 L200.628102,12.9875851 C201.168766,11.5677205 203.74732,9.22911996 207.65674,9.22911996 Z M207.074486,27.7291206 C210.443241,27.7291206 214.061534,25.3069986 214.061534,20.4627547 C214.061534,15.6602714 210.443241,13.2381495 207.074486,13.2381495 C203.70573,13.2381495 200.420154,15.6185107 200.420154,20.4627547 C200.420154,25.3487594 203.70573,27.7291206 207.074486,27.7291206 Z M226.663175,1.79571112 L226.663175,5.72121916 L222.171501,5.72121916 L222.171501,1.79571112 L226.663175,1.79571112 Z M226.663175,9.60496648 L226.663175,31.3205429 L222.171501,31.3205429 L222.171501,9.60496648 L226.663175,9.60496648 Z M242.259265,13.3634316 L237.684411,13.3634316 L237.684411,25.5158023 C237.684411,26.6851025 238.100307,27.6038384 239.431174,27.6038384 C240.554092,27.6038384 241.344294,27.3950348 242.259265,27.0191883 L242.259265,30.8194142 C241.344294,31.2787821 240.138196,31.5711072 238.266666,31.5711072 C235.563343,31.5711072 233.192738,30.4853284 233.192738,25.6828451 L233.192738,13.3634316 L230.198288,13.3634316 L230.198288,9.60496648 L233.192738,9.60496648 L233.192738,4.51015817 L237.684411,4.51015817 L237.684411,9.60496648 L242.259265,9.60496648 L242.259265,13.3634316 Z M255.942234,9.22911996 C259.851654,9.22911996 262.430208,11.5677205 262.970872,12.9875851 L262.970872,9.60496648 L267.462546,9.60496648 L267.462546,31.3205429 L262.970872,31.3205429 L262.970872,27.7291206 C262.430208,29.483071 259.851654,31.7381501 255.942234,31.7381501 C251.034665,31.7381501 245.170535,28.0632064 245.170535,20.4627547 C245.170535,12.9875851 251.034665,9.22911996 255.942234,9.22911996 Z M256.524488,13.2381495 C253.155733,13.2381495 249.53744,15.6602714 249.53744,20.4627547 C249.53744,25.3069986 253.155733,27.7291206 256.524488,27.7291206 C259.893244,27.7291206 263.17882,25.3487594 263.17882,20.4627547 C263.17882,15.6185107 259.893244,13.2381495 256.524488,13.2381495 Z M276.529073,1.79571112 L276.529073,31.3205429 L272.037399,31.3205429 L272.037399,1.79571112 L276.529073,1.79571112 Z" id="Shape"></path>
                    </g>
                </g>
            </g>
        </g>
    </g>
</svg>