<?xml version="1.0" encoding="UTF-8"?>
<svg width="457px" height="180px" viewBox="0 0 457 180" version="1.1" xmlns="http://www.w3.org/2000/svg" xmlns:xlink="http://www.w3.org/1999/xlink">
    <!-- Generator: Sketch 52.5 (67469) - http://www.bohemiancoding.com/sketch -->
    <title>Logo</title>
    <desc>Created with Sketch.</desc>
    <g id="Main" stroke="none" stroke-width="1" fill="none" fill-rule="evenodd">
        <g id="Dark/Screen-1" transform="translate(-491.000000, -352.000000)" fill="#FFFFFF">
            <g id="Group" transform="translate(284.000000, 352.000000)">
                <g id="Logo" transform="translate(203.000000, 0.000000)">
                    <g transform="translate(174.000000, 0.000000)" id="SvgjsG1029">
                        <g>
                            <path d="M14.0953128,20.1607557 C15.3607134,20.2938276 16.2043138,20.9591873 16.4855139,22.1568348 L18.1727147,28.544288 C23.2343171,17.3662449 33.2169219,8.31735282 48.2611291,1.2645399 C49.3859296,0.732252128 50.3701301,0.86532407 51.3543306,1.53068378 C52.338531,2.19604349 52.6197312,3.12754708 52.197931,4.32519456 L51.3543306,7.51892117 C75.5375421,-4.32448167 99.7207536,-2.1953306 123.903965,14.0394463 C124.888166,14.704806 125.309966,15.6363096 125.028766,16.7008852 C124.747566,17.7654607 124.044565,18.5638924 122.779165,18.6969643 C109.984559,21.3584031 100.001954,26.1489931 92.9719504,33.201806 C85.9419471,40.121547 81.723945,49.303511 80.1773443,60.8807699 C80.0367442,61.6792016 79.7555441,62.2114893 79.0525438,62.7437771 C78.3495434,63.1429929 77.505943,63.2760649 76.8029427,63.009921 C67.2421381,60.747698 58.524934,60.4815541 50.6513302,62.3445613 C59.7903346,63.1429929 67.8045384,64.3406404 74.6939417,65.6713598 C75.8187422,65.9375037 76.5217426,66.6028634 76.8029427,67.667439 C77.0841428,68.7320145 76.8029427,69.6635181 75.9593423,70.3288778 C60.0715347,83.1037842 40.9499256,90.9550288 18.5945149,94.0156835 L18.4539149,99.3385612 C18.4539149,100.136993 18.1727147,100.669281 17.6103144,101.201568 C17.0479142,101.733856 16.4855139,102 15.6419135,102 C14.7983131,102 14.2359128,101.733856 13.6735126,101.068496 C12.9705122,100.669281 12.6893121,100.003921 12.6893121,99.3385612 C12.8299122,95.4794748 12.9705122,92.9511079 13.1111123,91.4873166 C15.3607134,66.7359354 28.1553195,46.2428563 51.7761308,30.0080794 C52.4791311,29.6088635 53.1821314,29.3427197 53.8851318,29.6088635 C54.5881321,29.8750074 55.2911324,30.1411513 55.7129326,30.6734391 C56.1347328,31.3387988 56.2753329,32.0041585 56.1347328,32.6695182 C55.9941328,33.3348779 55.7129326,34.0002376 55.0099323,34.3994535 C33.9199222,49.0373671 21.9689165,67.1351512 19.1569152,88.6928058 C37.8567241,85.898295 54.0257318,79.6439137 67.6639383,69.929662 C59.0873342,68.4658706 49.2453295,67.534367 38.1379242,67.0020793 C37.575524,67.0020793 37.0131237,66.7359354 36.5913235,66.3367195 C36.1695233,65.9375037 35.7477231,65.4052159 35.7477231,64.8729282 C35.607123,64.3406404 35.607123,63.8083526 35.8883232,63.2760649 C36.1695233,62.7437771 36.5913235,62.3445613 37.1537238,61.9453455 C48.2611291,55.9571081 60.9151351,54.3602448 75.396942,57.2878275 C79.1931438,35.7301729 92.6907503,21.624547 115.749161,15.1040219 C104.501156,8.58349671 93.2531505,5.25669816 82.2863453,5.25669816 C71.17894,5.25669816 60.0715347,8.58349671 48.8235293,15.2370938 C47.6987288,15.9024535 46.5739283,15.7693816 45.7303279,15.1040219 C44.7461274,14.3055902 44.3243272,13.3740866 44.6055273,12.3095111 L45.5897278,8.84964059 C31.5297211,16.7008852 23.5155173,26.8143528 21.4065163,39.0569714 C21.2659162,39.7223311 20.9847161,40.2546189 20.5629159,40.6538347 C19.5787154,41.0530506 18.8757151,41.3191944 18.3133148,41.3191944 C17.6103144,41.3191944 17.0479142,41.1861225 16.626114,40.7869067 C16.0637137,40.3876908 15.7825136,39.8554031 15.5013134,39.3231153 L12.9705122,30.2742233 C3.97210794,48.6381513 3.2691076,65.9375037 10.8615112,82.1722806 C11.1427114,82.8376404 11.1427114,83.5030001 11.0021113,84.1683598 C10.7209112,84.8337195 10.1585109,85.3660072 9.45551056,85.6321511 C8.75251022,85.898295 7.90890982,85.898295 7.20590948,85.7652231 C6.50290915,85.6321511 6.08110895,84.8337195 5.65930874,84.1683598 C-3.47969562,64.4737124 -1.51129468,43.5814175 11.2833114,21.3584031 C11.9863118,20.4268995 12.8299122,20.0276837 14.0953128,20.1607557 Z" id="Path"></path>
                        </g>
                    </g>
                    <g id="white_logo_transparent" transform="translate(0.742857, 113.000000)" fill-rule="nonzero">
                        <g id="SvgjsG1030" transform="translate(1.119712, 2.767256)">
                            <path d="M29.6058348,51.1970412 L20.1512908,38.4319123 L10.6967469,51.1970412 L2.0703381,51.1970412 L15.8725921,33.0391573 L3.10550715,15.700426 L11.5938934,15.700426 L20.1512908,27.6464023 L28.7086883,15.700426 L37.1970745,15.700426 L24.4299896,33.0391573 L38.2322436,51.1970412 L29.6058348,51.1970412 Z M60.0398049,3.41313608 C73.9800814,3.41313608 84.4697945,13.9938579 84.4697945,27.1685632 C84.4697945,40.6163194 73.9800814,51.1970412 60.0398049,51.1970412 L44.4432579,51.1970412 L44.4432579,3.41313608 L60.0398049,3.41313608 Z M59.9707936,44.0977182 C70.5295179,44.0977182 76.7405322,36.5205561 76.7405322,27.1685632 C76.7405322,18.0896212 70.5295179,10.5124591 59.9707936,10.5124591 L52.0344976,10.5124591 L52.0344976,44.0977182 L59.9707936,44.0977182 Z M108.209671,15.0860615 C116.353001,15.0860615 127.394804,21.2297064 125.669523,36.1109797 L97.0988569,36.1109797 C98.2030372,42.4594129 103.309871,45.599498 109.106818,45.599498 C113.868596,45.599498 116.422012,44.3707691 119.044441,42.3228874 L123.254128,46.2821253 C120.07961,49.8317868 115.524866,51.8796684 108.899784,51.8796684 C99.7902964,51.8796684 89.6456397,45.7360235 89.6456397,33.5169963 C89.6456397,21.2297064 100.066342,15.0860615 108.209671,15.0860615 Z M108.209671,21.4344946 C103.585916,21.4344946 98.410071,24.5063171 97.1678682,30.7182247 L119.113452,30.7182247 C118.285317,24.5063171 112.833426,21.4344946 108.209671,21.4344946 Z M139.540788,2.93529703 L139.540788,51.1970412 L132.087571,51.1970412 L132.087571,2.93529703 L139.540788,2.93529703 Z M165.420014,21.8440709 L157.828774,21.8440709 L157.828774,41.7085229 C157.828774,43.6198791 158.518887,45.121659 160.727248,45.121659 C162.590552,45.121659 163.901766,44.7803454 165.420014,44.1659809 L165.420014,50.3778886 C163.901766,51.1287785 161.900439,51.6066176 158.794932,51.6066176 C154.3092,51.6066176 150.375557,49.8317868 150.375557,41.9815738 L150.375557,21.8440709 L145.406746,21.8440709 L145.406746,15.700426 L150.375557,15.700426 L150.375557,7.37237394 L157.828774,7.37237394 L157.828774,15.700426 L165.420014,15.700426 L165.420014,21.8440709 Z M188.124722,15.0860615 C194.611781,15.0860615 198.89048,18.9087739 199.787627,21.2297064 L199.787627,15.700426 L207.240844,15.700426 L207.240844,51.1970412 L199.787627,51.1970412 L199.787627,45.3264472 C198.89048,48.1934815 194.611781,51.8796684 188.124722,51.8796684 C179.981392,51.8796684 170.250803,45.8725489 170.250803,33.4487336 C170.250803,21.2297064 179.981392,15.0860615 188.124722,15.0860615 Z M189.09088,21.6392828 C183.500967,21.6392828 177.496986,25.5985206 177.496986,33.4487336 C177.496986,41.3672093 183.500967,45.3264472 189.09088,45.3264472 C194.680793,45.3264472 200.132683,41.435472 200.132683,33.4487336 C200.132683,25.5302579 194.680793,21.6392828 189.09088,21.6392828 Z M276.04508,46.0773371 C271.69737,49.8317868 266.038446,51.8796684 259.75842,51.8796684 C246.784302,51.8796684 234.845352,41.7767856 234.845352,27.3050887 C234.845352,12.8333917 246.784302,2.73050887 259.75842,2.73050887 C265.969435,2.73050887 271.559347,4.77839051 275.838046,8.39631476 L271.214291,13.5842816 C268.177795,11.2633491 264.244153,9.82983191 260.241499,9.82983191 C250.855966,9.82983191 242.712637,17.0656804 242.712637,27.3050887 C242.712637,37.5444969 250.855966,44.7803454 260.241499,44.7803454 C264.313164,44.7803454 268.384829,43.2785655 271.421325,40.8211075 L276.04508,46.0773371 Z M298.749788,15.0860615 C305.236847,15.0860615 309.515546,18.9087739 310.412692,21.2297064 L310.412692,15.700426 L317.86591,15.700426 L317.86591,51.1970412 L310.412692,51.1970412 L310.412692,45.3264472 C309.515546,48.1934815 305.236847,51.8796684 298.749788,51.8796684 C290.606458,51.8796684 280.875869,45.8725489 280.875869,33.4487336 C280.875869,21.2297064 290.606458,15.0860615 298.749788,15.0860615 Z M299.715946,21.6392828 C294.126033,21.6392828 288.122052,25.5985206 288.122052,33.4487336 C288.122052,41.3672093 294.126033,45.3264472 299.715946,45.3264472 C305.305858,45.3264472 310.757749,41.435472 310.757749,33.4487336 C310.757749,25.5302579 305.305858,21.6392828 299.715946,21.6392828 Z M344.573271,15.0860615 C352.716601,15.0860615 362.44719,21.2297064 362.44719,33.4487336 C362.44719,45.8725489 352.716601,51.8796684 344.573271,51.8796684 C338.086212,51.8796684 333.807513,48.1934815 332.910366,45.3264472 L332.910366,64.1669583 L325.457149,64.1669583 L325.457149,42.5276756 L325.457149,15.700426 L332.910366,15.700426 L332.910366,21.2297064 C333.807513,18.9087739 338.086212,15.0860615 344.573271,15.0860615 Z M343.607113,45.3264472 C349.197026,45.3264472 355.201007,41.3672093 355.201007,33.4487336 C355.201007,25.5985206 349.197026,21.6392828 343.607113,21.6392828 C338.0172,21.6392828 332.56531,25.5302579 332.56531,33.4487336 C332.56531,41.435472 338.0172,45.3264472 343.607113,45.3264472 Z M376.111422,2.93529703 L376.111422,9.35199286 L368.658204,9.35199286 L368.658204,2.93529703 L376.111422,2.93529703 Z M376.111422,15.700426 L376.111422,51.1970412 L368.658204,51.1970412 L368.658204,15.700426 L376.111422,15.700426 Z M401.990648,21.8440709 L394.399408,21.8440709 L394.399408,41.7085229 C394.399408,43.6198791 395.089521,45.121659 397.297881,45.121659 C399.161186,45.121659 400.4724,44.7803454 401.990648,44.1659809 L401.990648,50.3778886 C400.4724,51.1287785 398.471073,51.6066176 395.365566,51.6066176 C390.879833,51.6066176 386.946191,49.8317868 386.946191,41.9815738 L386.946191,21.8440709 L381.977379,21.8440709 L381.977379,15.700426 L386.946191,15.700426 L386.946191,7.37237394 L394.399408,7.37237394 L394.399408,15.700426 L401.990648,15.700426 L401.990648,21.8440709 Z M424.695356,15.0860615 C431.182415,15.0860615 435.461114,18.9087739 436.35826,21.2297064 L436.35826,15.700426 L443.811477,15.700426 L443.811477,51.1970412 L436.35826,51.1970412 L436.35826,45.3264472 C435.461114,48.1934815 431.182415,51.8796684 424.695356,51.8796684 C416.552026,51.8796684 406.821437,45.8725489 406.821437,33.4487336 C406.821437,21.2297064 416.552026,15.0860615 424.695356,15.0860615 Z M425.661513,21.6392828 C420.0716,21.6392828 414.06762,25.5985206 414.06762,33.4487336 C414.06762,41.3672093 420.0716,45.3264472 425.661513,45.3264472 C431.251426,45.3264472 436.703317,41.435472 436.703317,33.4487336 C436.703317,25.5302579 431.251426,21.6392828 425.661513,21.6392828 Z M458.855934,2.93529703 L458.855934,51.1970412 L451.402717,51.1970412 L451.402717,2.93529703 L458.855934,2.93529703 Z" id="Shape"></path>
                        </g>
                    </g>
                </g>
            </g>
        </g>
    </g>
</svg>