<svg width="76" height="63" xmlns="http://www.w3.org/2000/svg">
 <!-- Generator: Sketch 52.5 (67469) - http://www.bohemiancoding.com/sketch -->

 <title>Logo</title>
 <desc>Created with Sketch.</desc>
 <g>
  <title>background</title>
  <rect fill="none" id="canvas_background" height="65" width="78" y="-1" x="-1"/>
 </g>
 <g>
  <title>Layer 1</title>
  <path fill="#ffffff" id="Path" d="m8.49453,12.052903c0.76259,0.08141 1.27098,0.48845 1.44045,1.22113l1.01679,3.90762c3.05037,-6.83833 9.06638,-12.37413 18.13275,-16.68879c0.67786,-0.32563 1.27099,-0.24423 1.86412,0.16282c0.59312,0.40704 0.76259,0.9769 0.50839,1.70958l-0.50839,1.95381c14.57398,-7.24538 29.14797,-5.94284 43.72196,3.98903c0.59313,0.40704 0.84733,0.9769 0.67786,1.62817c-0.16946,0.65127 -0.59313,1.13972 -1.35572,1.22113c-7.71066,1.62818 -13.72666,4.55889 -17.96329,8.87355c-4.23662,4.23326 -6.7786,9.85046 -7.71065,16.93302c-0.08474,0.48845 -0.2542,0.81408 -0.67786,1.13972c-0.42367,0.24422 -0.93206,0.32563 -1.35572,0.16282c-5.76181,-1.38395 -11.01523,-1.54677 -15.76025,-0.40705c5.50762,0.48845 10.33737,1.22113 14.48926,2.03522c0.67786,0.16282 1.10152,0.56986 1.27099,1.22113c0.16946,0.65127 0,1.22113 -0.5084,1.62818c-9.57477,7.81523 -21.09839,12.61835 -34.57085,14.49075l-0.08474,3.25635c0,0.48845 -0.16946,0.81408 -0.50839,1.13972c-0.33893,0.32563 -0.67786,0.48845 -1.18626,0.48845c-0.50839,0 -0.84732,-0.16282 -1.18625,-0.56986c-0.42366,-0.24423 -0.59313,-0.65127 -0.59313,-1.05831c0.08473,-2.36086 0.16947,-3.90762 0.2542,-4.80312c1.35572,-15.14202 9.06638,-27.67896 23.30143,-37.61083c0.42367,-0.24422 0.84733,-0.40704 1.27099,-0.24422c0.42366,0.16282 0.84733,0.32563 1.10152,0.65127c0.2542,0.40704 0.33893,0.81408 0.2542,1.22113c-0.08473,0.40704 -0.2542,0.81409 -0.67786,1.05831c-12.70987,8.95496 -19.91213,20.02655 -21.60678,33.21476c11.26942,-1.70958 21.01365,-5.53579 29.23271,-11.47863c-5.16869,-0.8955 -11.09996,-1.46536 -17.79383,-1.79099c-0.33893,0 -0.67786,-0.16282 -0.93206,-0.40705c-0.25419,-0.24422 -0.50839,-0.56986 -0.50839,-0.89549c-0.08473,-0.32564 -0.08473,-0.65127 0.08473,-0.97691c0.16947,-0.32563 0.42366,-0.56986 0.76259,-0.81408c6.69387,-3.6634 14.3198,-4.6403 23.04724,-2.84931c2.28778,-13.18821 10.4221,-21.81754 24.31823,-25.80656c-6.7786,-3.98903 -13.5572,-6.02425 -20.16634,-6.02425c-6.69386,0 -13.38773,2.03522 -20.16633,6.10566c-0.67786,0.40704 -1.35572,0.32563 -1.86411,-0.08141c-0.59313,-0.48845 -0.84733,-1.05832 -0.67786,-1.70959l0.59312,-2.11662c-8.47324,4.80311 -13.303,10.99017 -14.57398,18.47978c-0.08474,0.40704 -0.2542,0.73268 -0.5084,0.9769c-0.59313,0.24423 -1.01679,0.40704 -1.35572,0.40704c-0.42366,0 -0.76259,-0.0814 -1.01679,-0.32563c-0.33893,-0.24423 -0.50839,-0.56986 -0.67786,-0.8955l-1.52518,-5.53579c-5.42288,11.2344 -5.84655,21.81754 -1.27099,31.7494c0.16946,0.40704 0.16946,0.81409 0.08473,1.22113c-0.16946,0.40705 -0.50839,0.73268 -0.93206,0.8955c-0.42366,0.16282 -0.93205,0.16282 -1.35572,0.08141c-0.42366,-0.08141 -0.67786,-0.56986 -0.93205,-0.97691c-5.50762,-12.04849 -4.32136,-24.82966 3.3893,-38.42491c0.42366,-0.56986 0.93205,-0.81409 1.69465,-0.73268z"/>
 </g>
</svg>